<svg width="136" height="54" viewBox="0 0 136 54" fill="none" xmlns="http://www.w3.org/2000/svg">
<path d="M3.37456 2.05888C3.05749 1.24715 3.85814 0.446499 4.66986 0.763572L31.4429 11.2216C32.3534 11.5772 32.2653 12.8935 31.3155 13.1247L19.3764 16.0303C19.0132 16.1187 18.7296 16.4022 18.6413 16.7654L15.7357 28.7046C15.5045 29.6544 14.1882 29.7425 13.8326 28.8319L3.37456 2.05888Z" fill="#B6D1FF"/>
<path d="M30 28.25H126C131.385 28.25 135.75 32.6152 135.75 38V44C135.75 49.3848 131.385 53.75 126 53.75H38C32.6152 53.75 28.25 49.3848 28.25 44V30C28.25 29.0335 29.0335 28.25 30 28.25Z" fill="url(#paint0_linear_13_40)" stroke="url(#paint1_linear_13_40)" stroke-width="0.5"/>
<path d="M47.7038 45.132C47.0804 45.132 46.5414 45.0367 46.0868 44.846C45.6321 44.648 45.2764 44.384 45.0198 44.054L45.8448 43.306C46.0794 43.5627 46.3471 43.7607 46.6478 43.9C46.9558 44.0393 47.3114 44.109 47.7148 44.109C48.0668 44.109 48.3491 44.0503 48.5618 43.933C48.7744 43.8157 48.8808 43.636 48.8808 43.394C48.8808 43.1887 48.8074 43.0493 48.6608 42.976C48.5214 42.9027 48.3344 42.8477 48.0998 42.811L47.1868 42.668C46.9521 42.6313 46.7211 42.58 46.4938 42.514C46.2738 42.4407 46.0758 42.3417 45.8998 42.217C45.7311 42.0923 45.5954 41.9347 45.4928 41.744C45.3901 41.546 45.3388 41.3077 45.3388 41.029C45.3388 40.435 45.5588 39.9803 45.9988 39.665C46.4461 39.3497 47.0584 39.192 47.8358 39.192C48.3858 39.192 48.8514 39.269 49.2328 39.423C49.6214 39.577 49.9404 39.7933 50.1898 40.072L49.4528 40.886C49.2914 40.71 49.0751 40.556 48.8038 40.424C48.5398 40.2847 48.2024 40.215 47.7918 40.215C47.0731 40.215 46.7138 40.4387 46.7138 40.886C46.7138 41.0913 46.7871 41.2343 46.9338 41.315C47.0804 41.3883 47.2711 41.4433 47.5058 41.48L48.4078 41.623C48.6498 41.6597 48.8808 41.7147 49.1008 41.788C49.3281 41.854 49.5261 41.9493 49.6948 42.074C49.8708 42.1987 50.0101 42.3563 50.1128 42.547C50.2154 42.7377 50.2668 42.9723 50.2668 43.251C50.2668 43.8377 50.0394 44.2997 49.5848 44.637C49.1374 44.967 48.5104 45.132 47.7038 45.132ZM51.1755 39.324H52.3525L52.8365 44.01H52.9355L53.7055 39.324H54.9925L55.7515 44.01H55.8505L56.3455 39.324H57.4675L56.7415 45H55.0365L54.3765 40.831H54.2775L53.6065 45H51.9015L51.1755 39.324ZM61.0492 45.132C60.5945 45.132 60.1912 45.0623 59.8392 44.923C59.4872 44.7837 59.1902 44.5857 58.9482 44.329C58.7135 44.0723 58.5339 43.7643 58.4092 43.405C58.2845 43.0383 58.2222 42.6277 58.2222 42.173C58.2222 41.711 58.2845 41.2967 58.4092 40.93C58.5412 40.5633 58.7245 40.2517 58.9592 39.995C59.1939 39.7383 59.4762 39.5403 59.8062 39.401C60.1435 39.2617 60.5212 39.192 60.9392 39.192C61.3499 39.192 61.7202 39.2617 62.0502 39.401C62.3802 39.533 62.6589 39.7237 62.8862 39.973C63.1209 40.2223 63.3005 40.523 63.4252 40.875C63.5499 41.227 63.6122 41.6157 63.6122 42.041V42.503H59.6302V42.646C59.6302 43.0567 59.7585 43.3903 60.0152 43.647C60.2719 43.8963 60.6312 44.021 61.0932 44.021C61.4452 44.021 61.7459 43.9513 61.9952 43.812C62.2519 43.6653 62.4645 43.4747 62.6332 43.24L63.4362 44.043C63.2309 44.3437 62.9302 44.6003 62.5342 44.813C62.1455 45.0257 61.6505 45.132 61.0492 45.132ZM60.9502 40.226C60.5542 40.226 60.2352 40.3507 59.9932 40.6C59.7512 40.8493 59.6302 41.1793 59.6302 41.59V41.667H62.2042V41.568C62.2042 41.1573 62.0905 40.831 61.8632 40.589C61.6432 40.347 61.3389 40.226 60.9502 40.226ZM67.6449 45.132C67.1902 45.132 66.7869 45.0623 66.4349 44.923C66.0829 44.7837 65.7859 44.5857 65.5439 44.329C65.3092 44.0723 65.1296 43.7643 65.0049 43.405C64.8802 43.0383 64.8179 42.6277 64.8179 42.173C64.8179 41.711 64.8802 41.2967 65.0049 40.93C65.1369 40.5633 65.3202 40.2517 65.5549 39.995C65.7896 39.7383 66.0719 39.5403 66.4019 39.401C66.7392 39.2617 67.1169 39.192 67.5349 39.192C67.9456 39.192 68.3159 39.2617 68.6459 39.401C68.9759 39.533 69.2546 39.7237 69.4819 39.973C69.7166 40.2223 69.8962 40.523 70.0209 40.875C70.1456 41.227 70.2079 41.6157 70.2079 42.041V42.503H66.2259V42.646C66.2259 43.0567 66.3542 43.3903 66.6109 43.647C66.8676 43.8963 67.2269 44.021 67.6889 44.021C68.0409 44.021 68.3416 43.9513 68.5909 43.812C68.8476 43.6653 69.0602 43.4747 69.2289 43.24L70.0319 44.043C69.8266 44.3437 69.5259 44.6003 69.1299 44.813C68.7412 45.0257 68.2462 45.132 67.6449 45.132ZM67.5459 40.226C67.1499 40.226 66.8309 40.3507 66.5889 40.6C66.3469 40.8493 66.2259 41.1793 66.2259 41.59V41.667H68.7999V41.568C68.7999 41.1573 68.6862 40.831 68.4589 40.589C68.2389 40.347 67.9346 40.226 67.5459 40.226ZM74.4936 45C73.9509 45 73.5513 44.857 73.2946 44.571C73.0379 44.285 72.9096 43.9147 72.9096 43.46V40.435H71.2596V39.324H72.3816C72.6089 39.324 72.7703 39.28 72.8656 39.192C72.9609 39.0967 73.0086 38.9317 73.0086 38.697V37.322H74.3176V39.324H76.6276V40.435H74.3176V43.889H76.6276V45H74.4936ZM84.759 39.324H86.167V40.325H86.244C86.398 39.9803 86.607 39.7053 86.871 39.5C87.1423 39.2947 87.498 39.192 87.938 39.192C88.2607 39.192 88.554 39.2543 88.818 39.379C89.0893 39.4963 89.3203 39.6797 89.511 39.929C89.7017 40.171 89.8483 40.479 89.951 40.853C90.0537 41.227 90.105 41.6633 90.105 42.162C90.105 42.6607 90.0537 43.097 89.951 43.471C89.8483 43.845 89.7017 44.1567 89.511 44.406C89.3203 44.648 89.0893 44.8313 88.818 44.956C88.554 45.0733 88.2607 45.132 87.938 45.132C87.498 45.132 87.1423 45.0293 86.871 44.824C86.607 44.6187 86.398 44.3437 86.244 43.999H86.167V47.2H84.759V39.324ZM87.344 44.01C87.7547 44.01 88.07 43.8853 88.29 43.636C88.5173 43.3867 88.631 43.0457 88.631 42.613V41.711C88.631 41.2783 88.5173 40.9373 88.29 40.688C88.07 40.4387 87.7547 40.314 87.344 40.314C87.0213 40.314 86.7427 40.3947 86.508 40.556C86.2807 40.71 86.167 40.9483 86.167 41.271V43.053C86.167 43.3757 86.2807 43.6177 86.508 43.779C86.7427 43.933 87.0213 44.01 87.344 44.01ZM93.8957 45.132C93.463 45.132 93.0744 45.0623 92.7297 44.923C92.3924 44.7837 92.1027 44.5857 91.8607 44.329C91.626 44.0723 91.4427 43.7607 91.3107 43.394C91.186 43.0273 91.1237 42.6167 91.1237 42.162C91.1237 41.7073 91.186 41.2967 91.3107 40.93C91.4427 40.5633 91.626 40.2517 91.8607 39.995C92.1027 39.7383 92.3924 39.5403 92.7297 39.401C93.0744 39.2617 93.463 39.192 93.8957 39.192C94.321 39.192 94.706 39.2617 95.0507 39.401C95.3954 39.5403 95.685 39.7383 95.9197 39.995C96.1617 40.2517 96.345 40.5633 96.4697 40.93C96.6017 41.2967 96.6677 41.7073 96.6677 42.162C96.6677 42.6167 96.6017 43.0273 96.4697 43.394C96.345 43.7607 96.1617 44.0723 95.9197 44.329C95.685 44.5857 95.3954 44.7837 95.0507 44.923C94.706 45.0623 94.321 45.132 93.8957 45.132ZM93.8957 44.054C94.299 44.054 94.618 43.933 94.8527 43.691C95.0874 43.4417 95.2047 43.0787 95.2047 42.602V41.722C95.2047 41.2453 95.0874 40.886 94.8527 40.644C94.618 40.3947 94.299 40.27 93.8957 40.27C93.4924 40.27 93.1734 40.3947 92.9387 40.644C92.704 40.886 92.5867 41.2453 92.5867 41.722V42.602C92.5867 43.0787 92.704 43.4417 92.9387 43.691C93.1734 43.933 93.4924 44.054 93.8957 44.054ZM100.876 45C100.334 45 99.9341 44.857 99.6774 44.571C99.4207 44.285 99.2924 43.9147 99.2924 43.46V40.435H97.6424V39.324H98.7644C98.9917 39.324 99.1531 39.28 99.2484 39.192C99.3437 39.0967 99.3914 38.9317 99.3914 38.697V37.322H100.7V39.324H103.01V40.435H100.7V43.889H103.01V45H100.876ZM109.177 45C108.832 45 108.565 44.9157 108.374 44.747C108.191 44.571 108.081 44.329 108.044 44.021H107.989C107.886 44.373 107.685 44.648 107.384 44.846C107.083 45.0367 106.713 45.132 106.273 45.132C105.701 45.132 105.246 44.9817 104.909 44.681C104.572 44.3803 104.403 43.9623 104.403 43.427C104.403 42.283 105.243 41.711 106.922 41.711H107.923V41.337C107.923 40.9777 107.835 40.7063 107.659 40.523C107.483 40.3397 107.197 40.248 106.801 40.248C106.442 40.248 106.152 40.3177 105.932 40.457C105.712 40.5963 105.525 40.776 105.371 40.996L104.568 40.314C104.744 39.9987 105.026 39.7347 105.415 39.522C105.811 39.302 106.321 39.192 106.944 39.192C107.692 39.192 108.275 39.368 108.693 39.72C109.118 40.0647 109.331 40.5817 109.331 41.271V43.944H110.002V45H109.177ZM106.746 44.164C107.083 44.164 107.362 44.087 107.582 43.933C107.809 43.7717 107.923 43.5553 107.923 43.284V42.525H106.955C106.185 42.525 105.8 42.767 105.8 43.251V43.471C105.8 43.6983 105.884 43.8707 106.053 43.988C106.222 44.1053 106.453 44.164 106.746 44.164ZM114.068 45C113.525 45 113.125 44.857 112.869 44.571C112.612 44.285 112.484 43.9147 112.484 43.46V40.435H110.834V39.324H111.956C112.183 39.324 112.344 39.28 112.44 39.192C112.535 39.0967 112.583 38.9317 112.583 38.697V37.322H113.892V39.324H116.202V40.435H113.892V43.889H116.202V45H114.068ZM120.279 45.132C119.846 45.132 119.457 45.0623 119.113 44.923C118.775 44.7837 118.486 44.5857 118.244 44.329C118.009 44.0723 117.826 43.7607 117.694 43.394C117.569 43.0273 117.507 42.6167 117.507 42.162C117.507 41.7073 117.569 41.2967 117.694 40.93C117.826 40.5633 118.009 40.2517 118.244 39.995C118.486 39.7383 118.775 39.5403 119.113 39.401C119.457 39.2617 119.846 39.192 120.279 39.192C120.704 39.192 121.089 39.2617 121.434 39.401C121.778 39.5403 122.068 39.7383 122.303 39.995C122.545 40.2517 122.728 40.5633 122.853 40.93C122.985 41.2967 123.051 41.7073 123.051 42.162C123.051 42.6167 122.985 43.0273 122.853 43.394C122.728 43.7607 122.545 44.0723 122.303 44.329C122.068 44.5857 121.778 44.7837 121.434 44.923C121.089 45.0623 120.704 45.132 120.279 45.132ZM120.279 44.054C120.682 44.054 121.001 43.933 121.236 43.691C121.47 43.4417 121.588 43.0787 121.588 42.602V41.722C121.588 41.2453 121.47 40.886 121.236 40.644C121.001 40.3947 120.682 40.27 120.279 40.27C119.875 40.27 119.556 40.3947 119.322 40.644C119.087 40.886 118.97 41.2453 118.97 41.722V42.602C118.97 43.0787 119.087 43.4417 119.322 43.691C119.556 43.933 119.875 44.054 120.279 44.054Z" fill="white"/>
<defs>
<linearGradient id="paint0_linear_13_40" x1="28" y1="41" x2="136" y2="41" gradientUnits="userSpaceOnUse">
<stop stop-color="#003289"/>
<stop offset="1" stop-color="#509BFF"/>
</linearGradient>
<linearGradient id="paint1_linear_13_40" x1="28" y1="41" x2="136" y2="41" gradientUnits="userSpaceOnUse">
<stop stop-opacity="0"/>
<stop offset="1" stop-color="#9B9B9B"/>
</linearGradient>
</defs>
</svg>
