<svg width="119" height="53" viewBox="0 0 119 53" fill="none" xmlns="http://www.w3.org/2000/svg">
<path d="M117.589 4.12912C118.106 3.42712 117.539 2.44652 116.673 2.5427L88.1058 5.71498C87.1343 5.82286 86.8787 7.11711 87.7363 7.5862L98.5166 13.4829C98.8445 13.6622 99.0451 14.0096 99.0364 14.3833L98.753 26.6676C98.7304 27.6448 99.979 28.0706 100.558 27.2832L117.589 4.12912Z" fill="#FF9436"/>
<path d="M89 27.25H10C4.61522 27.25 0.25 31.6152 0.25 37V43C0.25 48.3848 4.61522 52.75 10 52.75H81C86.3848 52.75 90.75 48.3848 90.75 43V29C90.75 28.0335 89.9665 27.25 89 27.25Z" fill="url(#paint0_linear_13_22)" stroke="url(#paint1_linear_13_22)" stroke-width="0.5"/>
<path d="M12.8465 42.889H14.5845V39.435H12.7365V38.324H14.5845V37.4C14.5845 37.1727 14.6138 36.9673 14.6725 36.784C14.7385 36.5933 14.8375 36.432 14.9695 36.3C15.1015 36.1607 15.2665 36.0543 15.4645 35.981C15.6698 35.9003 15.9082 35.86 16.1795 35.86H18.0935V36.971H15.9925V38.324H18.0935V39.435H15.9925V42.889H17.8405V44H12.8465V42.889ZM19.4092 42.889H21.2132V36.971H19.4092V35.86H22.6212V42.889H24.4362V44H19.4092V42.889ZM29.5799 42.999H29.5249C29.4002 43.307 29.2059 43.5747 28.9419 43.802C28.6852 44.022 28.3259 44.132 27.8639 44.132C27.3066 44.132 26.8519 43.9487 26.4999 43.582C26.1552 43.208 25.9829 42.6763 25.9829 41.987V38.324H27.3909V41.789C27.3909 42.6103 27.7466 43.021 28.4579 43.021C28.5972 43.021 28.7329 43.0027 28.8649 42.966C29.0042 42.9293 29.1252 42.8743 29.2279 42.801C29.3379 42.7203 29.4222 42.625 29.4809 42.515C29.5469 42.405 29.5799 42.273 29.5799 42.119V38.324H30.9879V44H29.5799V42.999ZM32.6336 42.889H34.3716V39.435H32.5236V38.324H34.3716V37.4C34.3716 37.1727 34.4009 36.9673 34.4596 36.784C34.5256 36.5933 34.6246 36.432 34.7566 36.3C34.8886 36.1607 35.0536 36.0543 35.2516 35.981C35.4569 35.9003 35.6953 35.86 35.9666 35.86H37.8806V36.971H35.7796V38.324H37.8806V39.435H35.7796V42.889H37.6276V44H32.6336V42.889ZM39.2293 42.889H40.9673V39.435H39.1193V38.324H40.9673V37.4C40.9673 37.1727 40.9966 36.9673 41.0553 36.784C41.1213 36.5933 41.2203 36.432 41.3523 36.3C41.4843 36.1607 41.6493 36.0543 41.8473 35.981C42.0526 35.9003 42.291 35.86 42.5623 35.86H44.4763V36.971H42.3753V38.324H44.4763V39.435H42.3753V42.889H44.2233V44H39.2293V42.889ZM49.851 38.324H51.281L48.564 45.012C48.41 45.4007 48.2047 45.694 47.948 45.892C47.6913 46.0973 47.3283 46.2 46.859 46.2H45.825V45.089H47.178L47.607 43.945L45.319 38.324H46.815L47.684 40.7L48.289 42.504H48.366L48.971 40.7L49.851 38.324ZM61.7114 44.132C61.2787 44.132 60.8901 44.0623 60.5454 43.923C60.2007 43.7837 59.9074 43.5857 59.6654 43.329C59.4307 43.0723 59.2474 42.7607 59.1154 42.394C58.9907 42.0273 58.9284 41.6167 58.9284 41.162C58.9284 40.7073 58.9907 40.2967 59.1154 39.93C59.2474 39.5633 59.4307 39.2517 59.6654 38.995C59.9074 38.7383 60.1971 38.5403 60.5344 38.401C60.8791 38.2617 61.2677 38.192 61.7004 38.192C62.3017 38.192 62.7857 38.3167 63.1524 38.566C63.5191 38.8153 63.7977 39.1453 63.9884 39.556L62.8994 40.15C62.7967 39.908 62.6501 39.7137 62.4594 39.567C62.2761 39.413 62.0231 39.336 61.7004 39.336C61.2824 39.336 60.9597 39.457 60.7324 39.699C60.5124 39.941 60.4024 40.271 60.4024 40.689V41.635C60.4024 42.0457 60.5124 42.3757 60.7324 42.625C60.9597 42.867 61.2897 42.988 61.7224 42.988C62.0597 42.988 62.3274 42.911 62.5254 42.757C62.7307 42.603 62.8957 42.3977 63.0204 42.141L64.0764 42.768C63.8857 43.1713 63.5961 43.5013 63.2074 43.758C62.8261 44.0073 62.3274 44.132 61.7114 44.132ZM70.1771 44C69.8324 44 69.5648 43.9157 69.3741 43.747C69.1908 43.571 69.0808 43.329 69.0441 43.021H68.9891C68.8864 43.373 68.6848 43.648 68.3841 43.846C68.0834 44.0367 67.7131 44.132 67.2731 44.132C66.7011 44.132 66.2464 43.9817 65.9091 43.681C65.5718 43.3803 65.4031 42.9623 65.4031 42.427C65.4031 41.283 66.2428 40.711 67.9221 40.711H68.9231V40.337C68.9231 39.9777 68.8351 39.7063 68.6591 39.523C68.4831 39.3397 68.1971 39.248 67.8011 39.248C67.4418 39.248 67.1521 39.3177 66.9321 39.457C66.7121 39.5963 66.5251 39.776 66.3711 39.996L65.5681 39.314C65.7441 38.9987 66.0264 38.7347 66.4151 38.522C66.8111 38.302 67.3208 38.192 67.9441 38.192C68.6921 38.192 69.2751 38.368 69.6931 38.72C70.1184 39.0647 70.3311 39.5817 70.3311 40.271V42.944H71.0021V44H70.1771ZM67.7461 43.164C68.0834 43.164 68.3621 43.087 68.5821 42.933C68.8094 42.7717 68.9231 42.5553 68.9231 42.284V41.525H67.9551C67.1851 41.525 66.8001 41.767 66.8001 42.251V42.471C66.8001 42.6983 66.8844 42.8707 67.0531 42.988C67.2218 43.1053 67.4528 43.164 67.7461 43.164ZM75.0678 44C74.5251 44 74.1255 43.857 73.8688 43.571C73.6121 43.285 73.4838 42.9147 73.4838 42.46V39.435H71.8338V38.324H72.9558C73.1831 38.324 73.3445 38.28 73.4398 38.192C73.5351 38.0967 73.5828 37.9317 73.5828 37.697V36.322H74.8918V38.324H77.2018V39.435H74.8918V42.889H77.2018V44H75.0678Z" fill="white"/>
<defs>
<linearGradient id="paint0_linear_13_22" x1="91" y1="40" x2="0" y2="40" gradientUnits="userSpaceOnUse">
<stop stop-color="#242424"/>
<stop offset="1" stop-color="#161616"/>
</linearGradient>
<linearGradient id="paint1_linear_13_22" x1="91" y1="40" x2="0" y2="40" gradientUnits="userSpaceOnUse">
<stop/>
<stop offset="1" stop-color="#666666"/>
</linearGradient>
</defs>
</svg>
