<svg width="112" height="54" viewBox="0 0 112 54" fill="none" xmlns="http://www.w3.org/2000/svg">
<path d="M2.21391 2.05888C1.89684 1.24715 2.69749 0.446499 3.50922 0.763572L30.2823 11.2216C31.1928 11.5772 31.1047 12.8935 30.1549 13.1247L18.2158 16.0303C17.8526 16.1187 17.569 16.4022 17.4806 16.7654L14.575 28.7046C14.3439 29.6544 13.0276 29.7425 12.6719 28.8319L2.21391 2.05888Z" fill="url(#paint0_linear_24_54)"/>
<path d="M28.8394 28.25H101.839C107.224 28.25 111.589 32.6152 111.589 38V44C111.589 49.3848 107.224 53.75 101.839 53.75H36.8394C31.4546 53.75 27.0894 49.3848 27.0894 44V30C27.0894 29.0335 27.8729 28.25 28.8394 28.25Z" fill="url(#paint1_linear_24_54)" stroke="url(#paint2_linear_24_54)" stroke-width="0.5"/>
<path d="M64.7968 39.324H66.2268L63.5098 46.012C63.3558 46.4007 63.1505 46.694 62.8938 46.892C62.6371 47.0973 62.2741 47.2 61.8048 47.2H60.7708V46.089H62.1238L62.5528 44.945L60.2648 39.324H61.7608L62.6298 41.7L63.2348 43.504H63.3118L63.9168 41.7L64.7968 39.324ZM69.8415 45.132C69.4088 45.132 69.0202 45.0623 68.6755 44.923C68.3382 44.7837 68.0485 44.5857 67.8065 44.329C67.5718 44.0723 67.3885 43.7607 67.2565 43.394C67.1318 43.0273 67.0695 42.6167 67.0695 42.162C67.0695 41.7073 67.1318 41.2967 67.2565 40.93C67.3885 40.5633 67.5718 40.2517 67.8065 39.995C68.0485 39.7383 68.3382 39.5403 68.6755 39.401C69.0202 39.2617 69.4088 39.192 69.8415 39.192C70.2668 39.192 70.6518 39.2617 70.9965 39.401C71.3412 39.5403 71.6308 39.7383 71.8655 39.995C72.1075 40.2517 72.2908 40.5633 72.4155 40.93C72.5475 41.2967 72.6135 41.7073 72.6135 42.162C72.6135 42.6167 72.5475 43.0273 72.4155 43.394C72.2908 43.7607 72.1075 44.0723 71.8655 44.329C71.6308 44.5857 71.3412 44.7837 70.9965 44.923C70.6518 45.0623 70.2668 45.132 69.8415 45.132ZM69.8415 44.054C70.2448 44.054 70.5638 43.933 70.7985 43.691C71.0332 43.4417 71.1505 43.0787 71.1505 42.602V41.722C71.1505 41.2453 71.0332 40.886 70.7985 40.644C70.5638 40.3947 70.2448 40.27 69.8415 40.27C69.4382 40.27 69.1192 40.3947 68.8845 40.644C68.6498 40.886 68.5325 41.2453 68.5325 41.722V42.602C68.5325 43.0787 68.6498 43.4417 68.8845 43.691C69.1192 43.933 69.4382 44.054 69.8415 44.054ZM77.5042 43.999H77.4492C77.3245 44.307 77.1302 44.5747 76.8662 44.802C76.6095 45.022 76.2502 45.132 75.7882 45.132C75.2309 45.132 74.7762 44.9487 74.4242 44.582C74.0795 44.208 73.9072 43.6763 73.9072 42.987V39.324H75.3152V42.789C75.3152 43.6103 75.6709 44.021 76.3822 44.021C76.5215 44.021 76.6572 44.0027 76.7892 43.966C76.9285 43.9293 77.0495 43.8743 77.1522 43.801C77.2622 43.7203 77.3465 43.625 77.4052 43.515C77.4712 43.405 77.5042 43.273 77.5042 43.119V39.324H78.9122V45H77.5042V43.999Z" fill="white"/>
<defs>
<linearGradient id="paint0_linear_24_54" x1="1.38362" y1="-0.0667234" x2="23.5303" y2="22.0799" gradientUnits="userSpaceOnUse">
<stop stop-color="#FFC53E"/>
<stop offset="1" stop-color="#AF8600"/>
</linearGradient>
<linearGradient id="paint1_linear_24_54" x1="26.8394" y1="41" x2="111.839" y2="41" gradientUnits="userSpaceOnUse">
<stop stop-color="#FFBC51"/>
<stop offset="1" stop-color="#FF7829"/>
</linearGradient>
<linearGradient id="paint2_linear_24_54" x1="26.8394" y1="41" x2="111.839" y2="41" gradientUnits="userSpaceOnUse">
<stop stop-opacity="0"/>
<stop offset="1" stop-color="#9B9B9B"/>
</linearGradient>
</defs>
</svg>
