<svg width="119" height="53" viewBox="0 0 119 53" fill="none" xmlns="http://www.w3.org/2000/svg">
<path d="M1.41072 4.12912C0.894362 3.42712 1.46051 2.44652 2.32664 2.5427L30.8942 5.71498C31.8657 5.82286 32.1213 7.11711 31.2637 7.5862L20.4834 13.4829C20.1555 13.6622 19.9549 14.0096 19.9636 14.3833L20.247 26.6676C20.2696 27.6448 19.021 28.0706 18.4418 27.2832L1.41072 4.12912Z" fill="#FF9436"/>
<path d="M30 27.25H109C114.385 27.25 118.75 31.6152 118.75 37V43C118.75 48.3848 114.385 52.75 109 52.75H38C32.6152 52.75 28.25 48.3848 28.25 43V29C28.25 28.0335 29.0335 27.25 30 27.25Z" fill="url(#paint0_linear_13_22)" stroke="url(#paint1_linear_13_22)" stroke-width="0.5"/>
<path d="M41.8465 42.889H43.5845V39.435H41.7365V38.324H43.5845V37.4C43.5845 37.1727 43.6138 36.9673 43.6725 36.784C43.7385 36.5933 43.8375 36.432 43.9695 36.3C44.1015 36.1607 44.2665 36.0543 44.4645 35.981C44.6698 35.9003 44.9082 35.86 45.1795 35.86H47.0935V36.971H44.9925V38.324H47.0935V39.435H44.9925V42.889H46.8405V44H41.8465V42.889ZM48.4092 42.889H50.2132V36.971H48.4092V35.86H51.6212V42.889H53.4362V44H48.4092V42.889ZM58.5799 42.999H58.5249C58.4002 43.307 58.2059 43.5747 57.9419 43.802C57.6852 44.022 57.3259 44.132 56.8639 44.132C56.3066 44.132 55.8519 43.9487 55.4999 43.582C55.1552 43.208 54.9829 42.6763 54.9829 41.987V38.324H56.3909V41.789C56.3909 42.6103 56.7466 43.021 57.4579 43.021C57.5972 43.021 57.7329 43.0027 57.8649 42.966C58.0042 42.9293 58.1252 42.8743 58.2279 42.801C58.3379 42.7203 58.4222 42.625 58.4809 42.515C58.5469 42.405 58.5799 42.273 58.5799 42.119V38.324H59.9879V44H58.5799V42.999ZM61.6336 42.889H63.3716V39.435H61.5236V38.324H63.3716V37.4C63.3716 37.1727 63.4009 36.9673 63.4596 36.784C63.5256 36.5933 63.6246 36.432 63.7566 36.3C63.8886 36.1607 64.0536 36.0543 64.2516 35.981C64.4569 35.9003 64.6953 35.86 64.9666 35.86H66.8806V36.971H64.7796V38.324H66.8806V39.435H64.7796V42.889H66.6276V44H61.6336V42.889ZM68.2293 42.889H69.9673V39.435H68.1193V38.324H69.9673V37.4C69.9673 37.1727 69.9966 36.9673 70.0553 36.784C70.1213 36.5933 70.2203 36.432 70.3523 36.3C70.4843 36.1607 70.6493 36.0543 70.8473 35.981C71.0526 35.9003 71.291 35.86 71.5623 35.86H73.4763V36.971H71.3753V38.324H73.4763V39.435H71.3753V42.889H73.2233V44H68.2293V42.889ZM78.851 38.324H80.281L77.564 45.012C77.41 45.4007 77.2047 45.694 76.948 45.892C76.6913 46.0973 76.3283 46.2 75.859 46.2H74.825V45.089H76.178L76.607 43.945L74.319 38.324H75.815L76.684 40.7L77.289 42.504H77.366L77.971 40.7L78.851 38.324ZM90.7114 44.132C90.2787 44.132 89.8901 44.0623 89.5454 43.923C89.2007 43.7837 88.9074 43.5857 88.6654 43.329C88.4307 43.0723 88.2474 42.7607 88.1154 42.394C87.9907 42.0273 87.9284 41.6167 87.9284 41.162C87.9284 40.7073 87.9907 40.2967 88.1154 39.93C88.2474 39.5633 88.4307 39.2517 88.6654 38.995C88.9074 38.7383 89.1971 38.5403 89.5344 38.401C89.8791 38.2617 90.2677 38.192 90.7004 38.192C91.3017 38.192 91.7857 38.3167 92.1524 38.566C92.5191 38.8153 92.7977 39.1453 92.9884 39.556L91.8994 40.15C91.7967 39.908 91.6501 39.7137 91.4594 39.567C91.2761 39.413 91.0231 39.336 90.7004 39.336C90.2824 39.336 89.9597 39.457 89.7324 39.699C89.5124 39.941 89.4024 40.271 89.4024 40.689V41.635C89.4024 42.0457 89.5124 42.3757 89.7324 42.625C89.9597 42.867 90.2897 42.988 90.7224 42.988C91.0597 42.988 91.3274 42.911 91.5254 42.757C91.7307 42.603 91.8957 42.3977 92.0204 42.141L93.0764 42.768C92.8857 43.1713 92.5961 43.5013 92.2074 43.758C91.8261 44.0073 91.3274 44.132 90.7114 44.132ZM99.1771 44C98.8324 44 98.5648 43.9157 98.3741 43.747C98.1908 43.571 98.0808 43.329 98.0441 43.021H97.9891C97.8864 43.373 97.6848 43.648 97.3841 43.846C97.0834 44.0367 96.7131 44.132 96.2731 44.132C95.7011 44.132 95.2464 43.9817 94.9091 43.681C94.5718 43.3803 94.4031 42.9623 94.4031 42.427C94.4031 41.283 95.2428 40.711 96.9221 40.711H97.9231V40.337C97.9231 39.9777 97.8351 39.7063 97.6591 39.523C97.4831 39.3397 97.1971 39.248 96.8011 39.248C96.4418 39.248 96.1521 39.3177 95.9321 39.457C95.7121 39.5963 95.5251 39.776 95.3711 39.996L94.5681 39.314C94.7441 38.9987 95.0264 38.7347 95.4151 38.522C95.8111 38.302 96.3208 38.192 96.9441 38.192C97.6921 38.192 98.2751 38.368 98.6931 38.72C99.1184 39.0647 99.3311 39.5817 99.3311 40.271V42.944H100.002V44H99.1771ZM96.7461 43.164C97.0834 43.164 97.3621 43.087 97.5821 42.933C97.8094 42.7717 97.9231 42.5553 97.9231 42.284V41.525H96.9551C96.1851 41.525 95.8001 41.767 95.8001 42.251V42.471C95.8001 42.6983 95.8844 42.8707 96.0531 42.988C96.2218 43.1053 96.4528 43.164 96.7461 43.164ZM104.068 44C103.525 44 103.125 43.857 102.869 43.571C102.612 43.285 102.484 42.9147 102.484 42.46V39.435H100.834V38.324H101.956C102.183 38.324 102.344 38.28 102.44 38.192C102.535 38.0967 102.583 37.9317 102.583 37.697V36.322H103.892V38.324H106.202V39.435H103.892V42.889H106.202V44H104.068Z" fill="white"/>
<defs>
<linearGradient id="paint0_linear_13_22" x1="28" y1="40" x2="119" y2="40" gradientUnits="userSpaceOnUse">
<stop stop-color="#242424"/>
<stop offset="1" stop-color="#161616"/>
</linearGradient>
<linearGradient id="paint1_linear_13_22" x1="28" y1="40" x2="119" y2="40" gradientUnits="userSpaceOnUse">
<stop/>
<stop offset="1" stop-color="#666666"/>
</linearGradient>
</defs>
</svg>
