<svg width="136" height="54" viewBox="0 0 136 54" fill="none" xmlns="http://www.w3.org/2000/svg">
<path d="M132.625 2.05888C132.943 1.24715 132.142 0.446499 131.33 0.763572L104.557 11.2216C103.647 11.5772 103.735 12.8935 104.684 13.1247L116.624 16.0303C116.987 16.1187 117.27 16.4022 117.359 16.7654L120.264 28.7046C120.495 29.6544 121.812 29.7425 122.167 28.8319L132.625 2.05888Z" fill="#B6D1FF"/>
<path d="M106 28.25H10C4.61522 28.25 0.25 32.6152 0.25 38V44C0.25 49.3848 4.61522 53.75 10 53.75H98C103.385 53.75 107.75 49.3848 107.75 44V30C107.75 29.0335 106.966 28.25 106 28.25Z" fill="url(#paint0_linear_13_40)" stroke="url(#paint1_linear_13_40)" stroke-width="0.5"/>
<path d="M15.7038 45.132C15.0804 45.132 14.5414 45.0367 14.0868 44.846C13.6321 44.648 13.2764 44.384 13.0198 44.054L13.8448 43.306C14.0794 43.5627 14.3471 43.7607 14.6478 43.9C14.9558 44.0393 15.3114 44.109 15.7148 44.109C16.0668 44.109 16.3491 44.0503 16.5618 43.933C16.7744 43.8157 16.8808 43.636 16.8808 43.394C16.8808 43.1887 16.8074 43.0493 16.6608 42.976C16.5214 42.9027 16.3344 42.8477 16.0998 42.811L15.1868 42.668C14.9521 42.6313 14.7211 42.58 14.4938 42.514C14.2738 42.4407 14.0758 42.3417 13.8998 42.217C13.7311 42.0923 13.5954 41.9347 13.4928 41.744C13.3901 41.546 13.3388 41.3077 13.3388 41.029C13.3388 40.435 13.5588 39.9803 13.9988 39.665C14.4461 39.3497 15.0584 39.192 15.8358 39.192C16.3858 39.192 16.8514 39.269 17.2328 39.423C17.6214 39.577 17.9404 39.7933 18.1898 40.072L17.4528 40.886C17.2914 40.71 17.0751 40.556 16.8038 40.424C16.5398 40.2847 16.2024 40.215 15.7918 40.215C15.0731 40.215 14.7138 40.4387 14.7138 40.886C14.7138 41.0913 14.7871 41.2343 14.9338 41.315C15.0804 41.3883 15.2711 41.4433 15.5058 41.48L16.4078 41.623C16.6498 41.6597 16.8808 41.7147 17.1008 41.788C17.3281 41.854 17.5261 41.9493 17.6948 42.074C17.8708 42.1987 18.0101 42.3563 18.1128 42.547C18.2154 42.7377 18.2668 42.9723 18.2668 43.251C18.2668 43.8377 18.0394 44.2997 17.5848 44.637C17.1374 44.967 16.5104 45.132 15.7038 45.132ZM19.1755 39.324H20.3525L20.8365 44.01H20.9355L21.7055 39.324H22.9925L23.7515 44.01H23.8505L24.3455 39.324H25.4675L24.7415 45H23.0365L22.3765 40.831H22.2775L21.6065 45H19.9015L19.1755 39.324ZM29.0492 45.132C28.5945 45.132 28.1912 45.0623 27.8392 44.923C27.4872 44.7837 27.1902 44.5857 26.9482 44.329C26.7135 44.0723 26.5339 43.7643 26.4092 43.405C26.2845 43.0383 26.2222 42.6277 26.2222 42.173C26.2222 41.711 26.2845 41.2967 26.4092 40.93C26.5412 40.5633 26.7245 40.2517 26.9592 39.995C27.1939 39.7383 27.4762 39.5403 27.8062 39.401C28.1435 39.2617 28.5212 39.192 28.9392 39.192C29.3499 39.192 29.7202 39.2617 30.0502 39.401C30.3802 39.533 30.6589 39.7237 30.8862 39.973C31.1209 40.2223 31.3005 40.523 31.4252 40.875C31.5499 41.227 31.6122 41.6157 31.6122 42.041V42.503H27.6302V42.646C27.6302 43.0567 27.7585 43.3903 28.0152 43.647C28.2719 43.8963 28.6312 44.021 29.0932 44.021C29.4452 44.021 29.7459 43.9513 29.9952 43.812C30.2519 43.6653 30.4645 43.4747 30.6332 43.24L31.4362 44.043C31.2309 44.3437 30.9302 44.6003 30.5342 44.813C30.1455 45.0257 29.6505 45.132 29.0492 45.132ZM28.9502 40.226C28.5542 40.226 28.2352 40.3507 27.9932 40.6C27.7512 40.8493 27.6302 41.1793 27.6302 41.59V41.667H30.2042V41.568C30.2042 41.1573 30.0905 40.831 29.8632 40.589C29.6432 40.347 29.3389 40.226 28.9502 40.226ZM35.6449 45.132C35.1902 45.132 34.7869 45.0623 34.4349 44.923C34.0829 44.7837 33.7859 44.5857 33.5439 44.329C33.3092 44.0723 33.1296 43.7643 33.0049 43.405C32.8802 43.0383 32.8179 42.6277 32.8179 42.173C32.8179 41.711 32.8802 41.2967 33.0049 40.93C33.1369 40.5633 33.3202 40.2517 33.5549 39.995C33.7896 39.7383 34.0719 39.5403 34.4019 39.401C34.7392 39.2617 35.1169 39.192 35.5349 39.192C35.9456 39.192 36.3159 39.2617 36.6459 39.401C36.9759 39.533 37.2546 39.7237 37.4819 39.973C37.7166 40.2223 37.8962 40.523 38.0209 40.875C38.1456 41.227 38.2079 41.6157 38.2079 42.041V42.503H34.2259V42.646C34.2259 43.0567 34.3542 43.3903 34.6109 43.647C34.8676 43.8963 35.2269 44.021 35.6889 44.021C36.0409 44.021 36.3416 43.9513 36.5909 43.812C36.8476 43.6653 37.0602 43.4747 37.2289 43.24L38.0319 44.043C37.8266 44.3437 37.5259 44.6003 37.1299 44.813C36.7412 45.0257 36.2462 45.132 35.6449 45.132ZM35.5459 40.226C35.1499 40.226 34.8309 40.3507 34.5889 40.6C34.3469 40.8493 34.2259 41.1793 34.2259 41.59V41.667H36.7999V41.568C36.7999 41.1573 36.6862 40.831 36.4589 40.589C36.2389 40.347 35.9346 40.226 35.5459 40.226ZM42.4936 45C41.9509 45 41.5513 44.857 41.2946 44.571C41.0379 44.285 40.9096 43.9147 40.9096 43.46V40.435H39.2596V39.324H40.3816C40.6089 39.324 40.7703 39.28 40.8656 39.192C40.9609 39.0967 41.0086 38.9317 41.0086 38.697V37.322H42.3176V39.324H44.6276V40.435H42.3176V43.889H44.6276V45H42.4936ZM52.759 39.324H54.167V40.325H54.244C54.398 39.9803 54.607 39.7053 54.871 39.5C55.1423 39.2947 55.498 39.192 55.938 39.192C56.2607 39.192 56.554 39.2543 56.818 39.379C57.0893 39.4963 57.3203 39.6797 57.511 39.929C57.7017 40.171 57.8483 40.479 57.951 40.853C58.0537 41.227 58.105 41.6633 58.105 42.162C58.105 42.6607 58.0537 43.097 57.951 43.471C57.8483 43.845 57.7017 44.1567 57.511 44.406C57.3203 44.648 57.0893 44.8313 56.818 44.956C56.554 45.0733 56.2607 45.132 55.938 45.132C55.498 45.132 55.1423 45.0293 54.871 44.824C54.607 44.6187 54.398 44.3437 54.244 43.999H54.167V47.2H52.759V39.324ZM55.344 44.01C55.7547 44.01 56.07 43.8853 56.29 43.636C56.5173 43.3867 56.631 43.0457 56.631 42.613V41.711C56.631 41.2783 56.5173 40.9373 56.29 40.688C56.07 40.4387 55.7547 40.314 55.344 40.314C55.0213 40.314 54.7427 40.3947 54.508 40.556C54.2807 40.71 54.167 40.9483 54.167 41.271V43.053C54.167 43.3757 54.2807 43.6177 54.508 43.779C54.7427 43.933 55.0213 44.01 55.344 44.01ZM61.8957 45.132C61.463 45.132 61.0744 45.0623 60.7297 44.923C60.3924 44.7837 60.1027 44.5857 59.8607 44.329C59.626 44.0723 59.4427 43.7607 59.3107 43.394C59.186 43.0273 59.1237 42.6167 59.1237 42.162C59.1237 41.7073 59.186 41.2967 59.3107 40.93C59.4427 40.5633 59.626 40.2517 59.8607 39.995C60.1027 39.7383 60.3924 39.5403 60.7297 39.401C61.0744 39.2617 61.463 39.192 61.8957 39.192C62.321 39.192 62.706 39.2617 63.0507 39.401C63.3954 39.5403 63.685 39.7383 63.9197 39.995C64.1617 40.2517 64.345 40.5633 64.4697 40.93C64.6017 41.2967 64.6677 41.7073 64.6677 42.162C64.6677 42.6167 64.6017 43.0273 64.4697 43.394C64.345 43.7607 64.1617 44.0723 63.9197 44.329C63.685 44.5857 63.3954 44.7837 63.0507 44.923C62.706 45.0623 62.321 45.132 61.8957 45.132ZM61.8957 44.054C62.299 44.054 62.618 43.933 62.8527 43.691C63.0874 43.4417 63.2047 43.0787 63.2047 42.602V41.722C63.2047 41.2453 63.0874 40.886 62.8527 40.644C62.618 40.3947 62.299 40.27 61.8957 40.27C61.4924 40.27 61.1734 40.3947 60.9387 40.644C60.704 40.886 60.5867 41.2453 60.5867 41.722V42.602C60.5867 43.0787 60.704 43.4417 60.9387 43.691C61.1734 43.933 61.4924 44.054 61.8957 44.054ZM68.8764 45C68.3337 45 67.9341 44.857 67.6774 44.571C67.4207 44.285 67.2924 43.9147 67.2924 43.46V40.435H65.6424V39.324H66.7644C66.9917 39.324 67.1531 39.28 67.2484 39.192C67.3437 39.0967 67.3914 38.9317 67.3914 38.697V37.322H68.7004V39.324H71.0104V40.435H68.7004V43.889H71.0104V45H68.8764ZM77.1771 45C76.8324 45 76.5648 44.9157 76.3741 44.747C76.1908 44.571 76.0808 44.329 76.0441 44.021H75.9891C75.8864 44.373 75.6848 44.648 75.3841 44.846C75.0834 45.0367 74.7131 45.132 74.2731 45.132C73.7011 45.132 73.2464 44.9817 72.9091 44.681C72.5718 44.3803 72.4031 43.9623 72.4031 43.427C72.4031 42.283 73.2428 41.711 74.9221 41.711H75.9231V41.337C75.9231 40.9777 75.8351 40.7063 75.6591 40.523C75.4831 40.3397 75.1971 40.248 74.8011 40.248C74.4418 40.248 74.1521 40.3177 73.9321 40.457C73.7121 40.5963 73.5251 40.776 73.3711 40.996L72.5681 40.314C72.7441 39.9987 73.0264 39.7347 73.4151 39.522C73.8111 39.302 74.3208 39.192 74.9441 39.192C75.6921 39.192 76.2751 39.368 76.6931 39.72C77.1184 40.0647 77.3311 40.5817 77.3311 41.271V43.944H78.0021V45H77.1771ZM74.7461 44.164C75.0834 44.164 75.3621 44.087 75.5821 43.933C75.8094 43.7717 75.9231 43.5553 75.9231 43.284V42.525H74.9551C74.1851 42.525 73.8001 42.767 73.8001 43.251V43.471C73.8001 43.6983 73.8844 43.8707 74.0531 43.988C74.2218 44.1053 74.4528 44.164 74.7461 44.164ZM82.0678 45C81.5251 45 81.1255 44.857 80.8688 44.571C80.6121 44.285 80.4838 43.9147 80.4838 43.46V40.435H78.8338V39.324H79.9558C80.1831 39.324 80.3445 39.28 80.4398 39.192C80.5351 39.0967 80.5828 38.9317 80.5828 38.697V37.322H81.8918V39.324H84.2018V40.435H81.8918V43.889H84.2018V45H82.0678ZM88.2785 45.132C87.8458 45.132 87.4572 45.0623 87.1125 44.923C86.7752 44.7837 86.4855 44.5857 86.2435 44.329C86.0088 44.0723 85.8255 43.7607 85.6935 43.394C85.5688 43.0273 85.5065 42.6167 85.5065 42.162C85.5065 41.7073 85.5688 41.2967 85.6935 40.93C85.8255 40.5633 86.0088 40.2517 86.2435 39.995C86.4855 39.7383 86.7752 39.5403 87.1125 39.401C87.4572 39.2617 87.8458 39.192 88.2785 39.192C88.7038 39.192 89.0888 39.2617 89.4335 39.401C89.7782 39.5403 90.0678 39.7383 90.3025 39.995C90.5445 40.2517 90.7278 40.5633 90.8525 40.93C90.9845 41.2967 91.0505 41.7073 91.0505 42.162C91.0505 42.6167 90.9845 43.0273 90.8525 43.394C90.7278 43.7607 90.5445 44.0723 90.3025 44.329C90.0678 44.5857 89.7782 44.7837 89.4335 44.923C89.0888 45.0623 88.7038 45.132 88.2785 45.132ZM88.2785 44.054C88.6818 44.054 89.0008 43.933 89.2355 43.691C89.4702 43.4417 89.5875 43.0787 89.5875 42.602V41.722C89.5875 41.2453 89.4702 40.886 89.2355 40.644C89.0008 40.3947 88.6818 40.27 88.2785 40.27C87.8752 40.27 87.5562 40.3947 87.3215 40.644C87.0868 40.886 86.9695 41.2453 86.9695 41.722V42.602C86.9695 43.0787 87.0868 43.4417 87.3215 43.691C87.5562 43.933 87.8752 44.054 88.2785 44.054Z" fill="white"/>
<defs>
<linearGradient id="paint0_linear_13_40" x1="108" y1="41" x2="0" y2="41" gradientUnits="userSpaceOnUse">
<stop stop-color="#003289"/>
<stop offset="1" stop-color="#509BFF"/>
</linearGradient>
<linearGradient id="paint1_linear_13_40" x1="108" y1="41" x2="0" y2="41" gradientUnits="userSpaceOnUse">
<stop stop-opacity="0"/>
<stop offset="1" stop-color="white"/>
</linearGradient>
</defs>
</svg>
